<svg width="344" height="178" viewBox="0 0 344 178" fill="none" xmlns="http://www.w3.org/2000/svg">
<path d="M228.805 64.291L215.605 86.1758C215.049 84.3231 214.331 82.2388 213.451 79.923C212.571 77.6071 211.483 75.4534 210.186 73.4618C208.889 71.4238 207.337 69.7333 205.531 68.3901C203.725 67.0006 201.64 66.3058 199.278 66.3058C197.101 66.3058 195.202 66.8616 193.581 67.9732C192.006 69.0848 190.663 70.5438 189.552 72.3502C188.44 74.1102 187.514 76.125 186.773 78.3945C186.078 80.6178 185.522 82.8873 185.105 85.2031C184.735 87.4727 184.48 89.6727 184.341 91.8033C184.202 93.8876 184.133 95.6939 184.133 97.2224V137.449H160.58V57.2045H169.612L179.13 75.8934C180.427 72.8828 181.909 70.127 183.577 67.6258C185.244 65.0784 187.166 62.9015 189.343 61.0952C191.52 59.2425 193.975 57.8066 196.708 56.7877C199.487 55.7687 202.613 55.2592 206.087 55.2592C207.893 55.2592 209.908 55.4213 212.131 55.7455C214.354 56.0234 216.531 56.5329 218.662 57.274C220.792 57.9688 222.761 58.8951 224.567 60.053C226.374 61.2109 227.786 62.6236 228.805 64.291Z" fill="#4021FF"/>
<path d="M258.244 37.8209C258.244 39.5809 257.897 41.2483 257.202 42.8231C256.554 44.3979 255.65 45.7642 254.493 46.9222C253.335 48.0801 251.968 49.0064 250.393 49.7012C248.819 50.3496 247.151 50.6738 245.391 50.6738C243.631 50.6738 241.964 50.3496 240.389 49.7012C238.861 49.0064 237.517 48.0801 236.359 46.9222C235.201 45.7642 234.275 44.3979 233.58 42.8231C232.932 41.2483 232.608 39.5809 232.608 37.8209C232.608 36.0608 232.932 34.4166 233.58 32.8881C234.275 31.3133 235.201 29.947 236.359 28.7891C237.517 27.6311 238.861 26.728 240.389 26.0795C241.964 25.3848 243.631 25.0374 245.391 25.0374C247.151 25.0374 248.819 25.3848 250.393 26.0795C251.968 26.728 253.335 27.6311 254.493 28.7891C255.65 29.947 256.554 31.3133 257.202 32.8881C257.897 34.4166 258.244 36.0608 258.244 37.8209ZM257.202 137.449H233.65V57.274H257.202V137.449Z" fill="#4021FF"/>
<path d="M343.544 24.2037L330.275 46.1579C330.136 44.3979 329.811 42.3831 329.302 40.1136C328.792 37.7977 327.936 35.6208 326.731 33.5829C325.573 31.5449 323.952 29.8312 321.868 28.4417C319.83 27.0059 317.213 26.288 314.017 26.288C310.729 26.288 308.089 26.9364 306.097 28.2333C304.106 29.5301 302.577 31.4755 301.512 34.0692C300.446 36.663 299.729 39.882 299.358 43.7263C298.987 47.5706 298.802 52.0402 298.802 57.135H323.119V66.4448H298.802V137.449H275.25V66.4448H260.66V57.135H275.25C275.25 49.7707 276.037 43.4484 277.612 38.1683C279.187 32.8881 281.572 28.5575 284.768 25.1763C287.964 21.7489 291.97 19.2478 296.787 17.673C301.651 16.0519 307.325 15.2414 313.809 15.2414C317.7 15.2414 321.173 15.5193 324.23 16.0751C327.333 16.5845 330.066 17.2793 332.428 18.1593C334.837 18.993 336.944 19.9425 338.751 21.0078C340.557 22.0731 342.155 23.1384 343.544 24.2037Z" fill="#4021FF"/>
<path fill-rule="evenodd" clip-rule="evenodd" d="M115.224 143.449H148.905V55.7185C146.282 65.8253 143.155 76.4047 139.628 86.9039C134.096 103.376 127.542 119.768 120.334 133.963C118.67 137.241 116.965 140.412 115.224 143.449ZM108.267 143.449H107.92V126.715C103.07 133.344 97.2088 138.275 90.3375 141.509C83.547 144.661 76.0694 146.238 67.9047 146.238C57.234 146.238 47.695 144.338 39.2877 140.538C30.8805 136.739 23.7666 131.565 17.9462 125.017C12.1258 118.389 7.6797 110.628 4.60782 101.736C1.53594 92.8435 0 83.3045 0 73.1188C0 62.9331 1.53594 53.3941 4.60782 44.5018C7.6797 35.6096 12.1258 27.8894 17.9462 21.3415C23.7666 14.7127 30.8805 9.49857 39.2877 5.69914C47.695 1.89971 57.234 0 67.9047 0C73.3209 0 78.4542 0.808385 83.3045 2.42516C88.2357 4.04194 92.7223 6.34585 96.7642 9.33689C100.887 12.2471 104.484 15.804 107.556 20.0076C110.709 24.1304 113.174 28.7382 114.953 33.8311L133.142 3.39523H148.905V28.2421C145.906 44.6523 140.702 64.8638 133.94 84.9935C128.473 101.271 122.026 117.379 114.984 131.247C112.789 135.57 110.545 139.656 108.267 143.449ZM107.071 61.5993C107.475 65.6412 107.677 69.4811 107.677 73.1188C107.677 76.3524 107.435 79.9497 106.95 83.9108C106.465 87.7911 105.697 91.7118 104.646 95.6729C103.595 99.634 102.221 103.474 100.523 107.192C98.8256 110.911 96.7238 114.225 94.2178 117.136C91.7926 120.046 88.9228 122.39 85.6084 124.169C82.3749 125.866 78.6563 126.715 74.4527 126.715C69.8448 126.715 65.8433 125.907 62.4481 124.29C59.0528 122.592 56.1426 120.369 53.7175 117.621C51.2923 114.791 49.2713 111.558 47.6545 107.92C46.1186 104.282 44.906 100.483 44.0168 96.5217C43.1276 92.5606 42.4809 88.559 42.0767 84.5171C41.7533 80.4752 41.5916 76.6757 41.5916 73.1188C41.5916 69.5619 41.7533 65.8029 42.0767 61.8418C42.4809 57.7998 43.1276 53.7983 44.0168 49.8372C44.906 45.8761 46.1186 42.0767 47.6545 38.4389C49.2713 34.8012 51.2923 31.608 53.7175 28.8595C56.1426 26.0301 59.0528 23.8071 62.4481 22.1903C65.8433 20.4927 69.8448 19.6439 74.4527 19.6439C79.0605 19.6439 83.1024 20.4522 86.5785 22.069C90.0546 23.6858 93.0052 25.9089 95.4304 28.7382C97.9364 31.4868 99.9573 34.6799 101.493 38.3176C103.11 41.8746 104.363 45.6336 105.252 49.5947C106.142 53.5558 106.748 57.5573 107.071 61.5993Z" fill="#4021FF"/>
</svg>
