<svg width="1571" height="303" viewBox="0 0 1571 303" fill="none" xmlns="http://www.w3.org/2000/svg">
<g clip-path="url(#clip0_695_150)">
<path d="M13050 105.036V251.193C13004.9 284.449 12950.5 302.532 12894.5 302.834C12757.1 299.168 12648.7 149.664 12503.9 153.171C12364.9 156.677 12255.9 301.081 12123.7 302.834C11977.7 304.906 11871.7 153.171 11729.6 153.171C11579.8 153.171 11478.7 302.834 11339 302.834C11193.5 302.834 11092.8 154.924 10951.9 153.171C10808.5 151.418 10703.3 301.081 10561.3 302.834C10424.6 304.747 10301.1 150.461 10160.4 153.171C10025.1 155.721 9904.45 302.834 9776.65 302.834C9642.79 302.834 9517.85 152.374 9382.72 153.171C9239.29 154.127 9127.74 315.266 8971.42 300.125C8857 289.286 8766.64 184.251 8656.84 158.59C8479.64 117.309 8365.86 302.834 8210.65 302.834C8074.71 302.834 7962.85 154.127 7823.41 153.171C7683.97 152.214 7569.39 302.834 7429.48 302.834C7289.56 302.834 7175.94 151.418 7035.39 153.171C6898.02 154.924 6785.36 302.834 6648.31 302.834C6511.26 302.834 6398.28 154.924 6261.23 153.171C6124.18 151.418 6005.15 302.834 5867.14 302.834C5736.15 302.834 5607.39 153.171 5476.56 153.171C5343.18 153.171 5216.33 302.834 5085.97 302.834C4963.43 302.834 4862.87 184.889 4743.83 158.59C4701.41 149.209 4657.2 152.084 4616.35 166.878C4523.28 198.755 4439.78 285.302 4336.36 300.125C4178.91 322.917 4059.24 150.302 3907.85 153.171C3737.81 156.518 3625.15 364.357 3423.88 280.679C3324.44 239.558 3247.47 153.171 3133.53 153.171C2998.08 151.896 2878.56 300.762 2746.46 302.834C2609.73 305.225 2483.84 149.346 2345.51 153.171C2194.6 157.315 2082.26 325.308 1923.7 300.125C1799.56 280.52 1703.94 150.461 1564.35 153.171C1432.4 155.721 1305.55 302.834 1177.11 302.834C1044.68 302.834 925.165 154.924 790.03 153.171C654.896 151.418 536.812 301.878 399.287 302.834C245.826 305.066 166.626 153.171 5.19731 153.171C-166.908 153.171 -241.647 327.061 -423.313 296.618C-436.381 291.199 -430.006 275.898 -430.325 266.813C-432.237 193.496 -428.732 226.966 -430.325 150.461C-422.357 140.739 -401.004 148.389 -378.375 147.752C-295.191 145.202 -236.707 101.53 -181.41 68.8557C-135.834 41.9194 -85.7955 7.17338 -25.8773 0.797946C151.965 -18.4877 228.297 144.245 395.781 147.752C535.537 150.621 613.463 26.4591 741.426 4.30445C849.63 -15.1406 921.34 38.7318 986.836 77.7813C1044.2 111.89 1102.53 148.07 1176.95 148.549C1333.76 149.505 1418.37 -10.8372 1588.25 1.59492C1724.98 11.3175 1812.94 147.592 1958.12 148.549C2094.21 149.346 2197.15 13.3895 2324.64 1.59492C2344.14 -0.318103 2363.78 -0.318103 2383.28 1.59492C2482.56 13.3895 2572.28 108.383 2670.12 137.71C2834.1 186.801 2934.5 51.642 3060.71 12.433C3251.94 -46.8585 3350.74 145.201 3520.29 148.549C3651.44 151.099 3761.24 15.6209 3879.8 1.59492C3898.19 -0.238404 3916.71 -0.238404 3935.1 1.59492C4071.03 12.4332 4167.76 148.389 4304.97 148.549C4415.56 148.549 4505.28 56.7424 4609.18 17.8522C4642.12 5.00252 4677.48 -0.439039 4712.76 1.91364C4827.34 9.24539 4919.92 118.903 5037.69 143.448C5238.96 185.367 5318.95 -35.2233 5525.16 7.3327C5658.38 34.7471 5758.78 180.585 5919.09 143.448C6025.22 118.743 6118.45 11.4768 6233.66 1.91364C6402.1 -12.2717 6498.2 148.23 6647.99 148.867C6752.05 148.867 6835.87 69.1745 6931.33 26.2997C6970.94 7.10273 7014.91 -1.30863 7058.81 1.91364C7186.3 10.9986 7292.91 151.577 7435.53 148.867C7560.15 146.477 7672.98 11.955 7798.55 1.91364C7968.74 -11.6342 8058.46 151.896 8216.7 148.867C8339.09 146.477 8455.74 12.4331 8576.21 1.91364C8741.46 -12.5905 8842.18 147.911 8990.54 148.867C9149.9 149.824 9260.65 -43.9895 9450.28 10.0424C9574.26 45.426 9659.04 176.122 9819.99 143.448C9923.73 122.409 10012.3 23.1119 10120.7 4.62317C10147.1 0.611799 10174 0.611799 10200.4 4.62317C10343.8 24.5464 10439.4 182.498 10608.3 143.448C10734.5 114.281 10828.9 -8.76521 10967.7 1.91364C11106.5 12.5925 11197.8 153.33 11344.6 148.867C11506.9 143.926 11622.6 -52.1182 11811.2 18.1709C11934 64.0741 12035.5 186.164 12191.4 138.029C12293.1 106.152 12376.1 10.5205 12488.6 1.91364C12638.2 -9.40275 12746.1 144.405 12893 148.867C12949.9 150.621 12983.9 134.044 13048.6 105.355" fill="#009F06"/>
</g>
<defs>
<clipPath id="clip0_695_150">
<rect width="1571" height="303" fill="white"/>
</clipPath>
</defs>
</svg>
